<?xml version="1.0" encoding="UTF-8" standalone="no"?>
<!DOCTYPE svg PUBLIC "-//W3C//DTD SVG 1.1//EN"
 "http://www.w3.org/Graphics/SVG/1.1/DTD/svg11.dtd">
<!-- Generated by graphviz version 12.2.1 (20241206.2353)
 -->
<!-- Title: D Pages: 1 -->
<svg width="652pt" height="399pt"
 viewBox="0.00 0.00 652.00 398.50" xmlns="http://www.w3.org/2000/svg" xmlns:xlink="http://www.w3.org/1999/xlink">
<g id="graph0" class="graph" transform="scale(1 1) rotate(0) translate(4 394.5)">
<title>D</title>
<polygon fill="black" stroke="none" points="-4,4 -4,-394.5 648,-394.5 648,4 -4,4"/>
<g id="clust1" class="cluster">
<title>clusterX</title>
<polygon fill="black" stroke="orange" points="8,-8 8,-382.5 636,-382.5 636,-8 8,-8"/>
<text text-anchor="middle" x="322" y="-365.2" font-family="Times New Roman,serif" font-size="14.00" fill="#20b2aa">Synthetic Customers Generation Plan</text>
</g>
<!-- s -->
<g id="node1" class="node">
<title>s</title>
<polygon fill="#333333" stroke="none" points="344,-350 236,-350 236,-314 344,-314 344,-350"/>
<text text-anchor="middle" x="290" y="-326.95" font-family="Times New Roman,serif" font-size="14.00" fill="white">Shops</text>
</g>
<!-- pri -->
<g id="node2" class="node">
<title>pri</title>
<polygon fill="#333333" stroke="none" points="250,-278 142,-278 142,-242 250,-242 250,-278"/>
<text text-anchor="middle" x="196" y="-254.95" font-family="Times New Roman,serif" font-size="14.00" fill="white">Pri (2)</text>
</g>
<!-- s&#45;&gt;pri -->
<g id="edge1" class="edge">
<title>s&#45;&gt;pri</title>
<path fill="none" stroke="#00ff00" d="M267.25,-314.05C255.35,-305.2 240.61,-294.22 227.62,-284.55"/>
<polygon fill="#00ff00" stroke="#00ff00" points="229.87,-281.86 219.76,-278.69 225.69,-287.47 229.87,-281.86"/>
</g>
<!-- sec -->
<g id="node3" class="node">
<title>sec</title>
<polygon fill="#333333" stroke="none" points="439,-278 331,-278 331,-242 439,-242 439,-278"/>
<text text-anchor="middle" x="385" y="-254.95" font-family="Times New Roman,serif" font-size="14.00" fill="white">Sec (3)</text>
</g>
<!-- s&#45;&gt;sec -->
<g id="edge2" class="edge">
<title>s&#45;&gt;sec</title>
<path fill="none" stroke="#00ff00" d="M313,-314.05C325.02,-305.2 339.92,-294.22 353.04,-284.55"/>
<polygon fill="#00ff00" stroke="#00ff00" points="355.02,-287.44 361,-278.69 350.87,-281.8 355.02,-287.44"/>
</g>
<!-- ps1 -->
<g id="node4" class="node">
<title>ps1</title>
<polygon fill="#333333" stroke="none" points="124,-206 16,-206 16,-170 124,-170 124,-206"/>
<text text-anchor="middle" x="70" y="-182.95" font-family="Times New Roman,serif" font-size="14.00" fill="white">ps1</text>
</g>
<!-- pri&#45;&gt;ps1 -->
<g id="edge3" class="edge">
<title>pri&#45;&gt;ps1</title>
<path fill="none" stroke="#00ff00" d="M165.5,-242.05C148.86,-232.81 128.06,-221.26 110.12,-211.29"/>
<polygon fill="#00ff00" stroke="#00ff00" points="111.98,-208.32 101.54,-206.52 108.59,-214.44 111.98,-208.32"/>
</g>
<!-- ps2 -->
<g id="node5" class="node">
<title>ps2</title>
<polygon fill="#333333" stroke="none" points="250,-206 142,-206 142,-170 250,-170 250,-206"/>
<text text-anchor="middle" x="196" y="-182.95" font-family="Times New Roman,serif" font-size="14.00" fill="white">ps2</text>
</g>
<!-- pri&#45;&gt;ps2 -->
<g id="edge4" class="edge">
<title>pri&#45;&gt;ps2</title>
<path fill="none" stroke="#00ff00" d="M196,-242.05C196,-234.57 196,-225.58 196,-217.14"/>
<polygon fill="#00ff00" stroke="#00ff00" points="199.5,-217.3 196,-207.3 192.5,-217.3 199.5,-217.3"/>
</g>
<!-- ss1 -->
<g id="node6" class="node">
<title>ss1</title>
<polygon fill="#333333" stroke="none" points="376,-206 268,-206 268,-170 376,-170 376,-206"/>
<text text-anchor="middle" x="322" y="-182.95" font-family="Times New Roman,serif" font-size="14.00" fill="white">ss1</text>
</g>
<!-- sec&#45;&gt;ss1 -->
<g id="edge5" class="edge">
<title>sec&#45;&gt;ss1</title>
<path fill="none" stroke="#00ff00" d="M369.75,-242.05C362.24,-233.71 353.04,-223.49 344.73,-214.25"/>
<polygon fill="#00ff00" stroke="#00ff00" points="347.41,-212.01 338.12,-206.91 342.21,-216.69 347.41,-212.01"/>
</g>
<!-- ss2 -->
<g id="node7" class="node">
<title>ss2</title>
<polygon fill="#333333" stroke="none" points="502,-206 394,-206 394,-170 502,-170 502,-206"/>
<text text-anchor="middle" x="448" y="-182.95" font-family="Times New Roman,serif" font-size="14.00" fill="white">ss2</text>
</g>
<!-- sec&#45;&gt;ss2 -->
<g id="edge6" class="edge">
<title>sec&#45;&gt;ss2</title>
<path fill="none" stroke="#00ff00" d="M400.25,-242.05C407.76,-233.71 416.96,-223.49 425.27,-214.25"/>
<polygon fill="#00ff00" stroke="#00ff00" points="427.79,-216.69 431.88,-206.91 422.59,-212.01 427.79,-216.69"/>
</g>
<!-- ss3 -->
<g id="node8" class="node">
<title>ss3</title>
<polygon fill="#333333" stroke="none" points="628,-206 520,-206 520,-170 628,-170 628,-206"/>
<text text-anchor="middle" x="574" y="-182.95" font-family="Times New Roman,serif" font-size="14.00" fill="white">ss3</text>
</g>
<!-- sec&#45;&gt;ss3 -->
<g id="edge7" class="edge">
<title>sec&#45;&gt;ss3</title>
<path fill="none" stroke="#00ff00" d="M430.75,-242.05C456.89,-232.37 489.88,-220.16 517.61,-209.89"/>
<polygon fill="#00ff00" stroke="#00ff00" points="518.76,-213.19 526.92,-206.44 516.33,-206.63 518.76,-213.19"/>
</g>
<!-- cp -->
<g id="node10" class="node">
<title>cp</title>
<polygon fill="#333333" stroke="none" points="250,-134 142,-134 142,-93 250,-93 250,-134"/>
<text text-anchor="middle" x="196" y="-116.7" font-family="Times New Roman,serif" font-size="14.00" fill="white">[Cust: 40]</text>
<text text-anchor="middle" x="196" y="-100.2" font-family="Times New Roman,serif" font-size="14.00" fill="white">20 each</text>
</g>
<!-- ps1&#45;&gt;cp -->
<g id="edge8" class="edge">
<title>ps1&#45;&gt;cp</title>
<path fill="none" stroke="#00ff00" d="M99.54,-170C115.23,-160.98 134.82,-149.71 152.23,-139.68"/>
<polygon fill="#00ff00" stroke="#00ff00" points="153.96,-142.73 160.88,-134.71 150.47,-136.66 153.96,-142.73"/>
</g>
<!-- ps2&#45;&gt;cp -->
<g id="edge9" class="edge">
<title>ps2&#45;&gt;cp</title>
<path fill="none" stroke="#00ff00" d="M196,-170.18C196,-162.71 196,-153.66 196,-145.06"/>
<polygon fill="#00ff00" stroke="#00ff00" points="199.5,-145.3 196,-135.3 192.5,-145.3 199.5,-145.3"/>
</g>
<!-- cs -->
<g id="node11" class="node">
<title>cs</title>
<polygon fill="#333333" stroke="none" points="439,-134 331,-134 331,-93 439,-93 439,-134"/>
<text text-anchor="middle" x="385" y="-116.7" font-family="Times New Roman,serif" font-size="14.00" fill="white">[Cust: 30]</text>
<text text-anchor="middle" x="385" y="-100.2" font-family="Times New Roman,serif" font-size="14.00" fill="white">10 each</text>
</g>
<!-- ss1&#45;&gt;cs -->
<g id="edge10" class="edge">
<title>ss1&#45;&gt;cs</title>
<path fill="none" stroke="#00ff00" d="M336.61,-170.18C343.77,-161.94 352.59,-151.8 360.73,-142.44"/>
<polygon fill="#00ff00" stroke="#00ff00" points="363.33,-144.77 367.25,-134.93 358.05,-140.18 363.33,-144.77"/>
</g>
<!-- ss2&#45;&gt;cs -->
<g id="edge11" class="edge">
<title>ss2&#45;&gt;cs</title>
<path fill="none" stroke="#00ff00" d="M433.39,-170.18C426.23,-161.94 417.41,-151.8 409.27,-142.44"/>
<polygon fill="#00ff00" stroke="#00ff00" points="411.95,-140.18 402.75,-134.93 406.67,-144.77 411.95,-140.18"/>
</g>
<!-- ss3&#45;&gt;cs -->
<g id="edge12" class="edge">
<title>ss3&#45;&gt;cs</title>
<path fill="none" stroke="#00ff00" d="M529.69,-170C504.84,-160.47 473.46,-148.43 446.29,-138.01"/>
<polygon fill="#00ff00" stroke="#00ff00" points="447.72,-134.81 437.13,-134.5 445.21,-141.34 447.72,-134.81"/>
</g>
<!-- c -->
<g id="node9" class="node">
<title>c</title>
<polygon fill="#333333" stroke="none" points="313,-57 205,-57 205,-16 313,-16 313,-57"/>
<text text-anchor="middle" x="259" y="-39.7" font-family="Times New Roman,serif" font-size="14.00" fill="white">Customers</text>
<text text-anchor="middle" x="259" y="-23.2" font-family="Times New Roman,serif" font-size="14.00" fill="white">70 Total</text>
</g>
<!-- cp&#45;&gt;c -->
<g id="edge13" class="edge">
<title>cp&#45;&gt;c</title>
<path fill="none" stroke="#00ff00" d="M212.22,-93.19C219.35,-84.7 227.86,-74.57 235.65,-65.3"/>
<polygon fill="#00ff00" stroke="#00ff00" points="238.11,-67.82 241.86,-57.91 232.75,-63.31 238.11,-67.82"/>
</g>
<!-- cs&#45;&gt;c -->
<g id="edge14" class="edge">
<title>cs&#45;&gt;c</title>
<path fill="none" stroke="#00ff00" d="M352.55,-93.19C336.83,-83.82 317.75,-72.47 300.93,-62.46"/>
<polygon fill="#00ff00" stroke="#00ff00" points="303.02,-59.63 292.64,-57.52 299.44,-65.65 303.02,-59.63"/>
</g>
</g>
</svg>
