<?xml version="1.0" encoding="UTF-8" standalone="no"?>
<!DOCTYPE svg PUBLIC "-//W3C//DTD SVG 1.1//EN"
 "http://www.w3.org/Graphics/SVG/1.1/DTD/svg11.dtd">
<!-- Generated by graphviz version 12.2.1 (20241206.2353)
 -->
<!-- Title: D Pages: 1 -->
<svg width="652pt" height="543pt"
 viewBox="0.00 0.00 652.00 542.50" xmlns="http://www.w3.org/2000/svg" xmlns:xlink="http://www.w3.org/1999/xlink">
<g id="graph0" class="graph" transform="scale(1 1) rotate(0) translate(4 538.5)">
<title>D</title>
<polygon fill="black" stroke="none" points="-4,4 -4,-538.5 648,-538.5 648,4 -4,4"/>
<g id="clust1" class="cluster">
<title>clusterX</title>
<polygon fill="black" stroke="orange" points="8,-8 8,-526.5 636,-526.5 636,-8 8,-8"/>
<text text-anchor="middle" x="322" y="-509.2" font-family="Times New Roman,serif" font-size="14.00" fill="#20b2aa">Appx Prod Variants Generation Plan</text>
</g>
<!-- s -->
<g id="node1" class="node">
<title>s</title>
<polygon fill="#333333" stroke="none" points="344,-494 236,-494 236,-458 344,-458 344,-494"/>
<text text-anchor="middle" x="290" y="-470.95" font-family="Times New Roman,serif" font-size="14.00" fill="white">Shops</text>
</g>
<!-- pri -->
<g id="node2" class="node">
<title>pri</title>
<polygon fill="#333333" stroke="none" points="250,-422 142,-422 142,-386 250,-386 250,-422"/>
<text text-anchor="middle" x="196" y="-398.95" font-family="Times New Roman,serif" font-size="14.00" fill="white">Pri (2)</text>
</g>
<!-- s&#45;&gt;pri -->
<g id="edge1" class="edge">
<title>s&#45;&gt;pri</title>
<path fill="none" stroke="#00ff00" d="M267.25,-458.05C255.35,-449.2 240.61,-438.22 227.62,-428.55"/>
<polygon fill="#00ff00" stroke="#00ff00" points="229.87,-425.86 219.76,-422.69 225.69,-431.47 229.87,-425.86"/>
</g>
<!-- sec -->
<g id="node3" class="node">
<title>sec</title>
<polygon fill="#333333" stroke="none" points="439,-422 331,-422 331,-386 439,-386 439,-422"/>
<text text-anchor="middle" x="385" y="-398.95" font-family="Times New Roman,serif" font-size="14.00" fill="white">Sec (3)</text>
</g>
<!-- s&#45;&gt;sec -->
<g id="edge2" class="edge">
<title>s&#45;&gt;sec</title>
<path fill="none" stroke="#00ff00" d="M313,-458.05C325.02,-449.2 339.92,-438.22 353.04,-428.55"/>
<polygon fill="#00ff00" stroke="#00ff00" points="355.02,-431.44 361,-422.69 350.87,-425.8 355.02,-431.44"/>
</g>
<!-- ps1 -->
<g id="node4" class="node">
<title>ps1</title>
<polygon fill="#333333" stroke="none" points="124,-350 16,-350 16,-314 124,-314 124,-350"/>
<text text-anchor="middle" x="70" y="-326.95" font-family="Times New Roman,serif" font-size="14.00" fill="white">ps1</text>
</g>
<!-- pri&#45;&gt;ps1 -->
<g id="edge3" class="edge">
<title>pri&#45;&gt;ps1</title>
<path fill="none" stroke="#00ff00" d="M165.5,-386.05C148.86,-376.81 128.06,-365.26 110.12,-355.29"/>
<polygon fill="#00ff00" stroke="#00ff00" points="111.98,-352.32 101.54,-350.52 108.59,-358.44 111.98,-352.32"/>
</g>
<!-- ps2 -->
<g id="node5" class="node">
<title>ps2</title>
<polygon fill="#333333" stroke="none" points="250,-350 142,-350 142,-314 250,-314 250,-350"/>
<text text-anchor="middle" x="196" y="-326.95" font-family="Times New Roman,serif" font-size="14.00" fill="white">ps2</text>
</g>
<!-- pri&#45;&gt;ps2 -->
<g id="edge4" class="edge">
<title>pri&#45;&gt;ps2</title>
<path fill="none" stroke="#00ff00" d="M196,-386.05C196,-378.57 196,-369.58 196,-361.14"/>
<polygon fill="#00ff00" stroke="#00ff00" points="199.5,-361.3 196,-351.3 192.5,-361.3 199.5,-361.3"/>
</g>
<!-- ss1 -->
<g id="node6" class="node">
<title>ss1</title>
<polygon fill="#333333" stroke="none" points="376,-350 268,-350 268,-314 376,-314 376,-350"/>
<text text-anchor="middle" x="322" y="-326.95" font-family="Times New Roman,serif" font-size="14.00" fill="white">ss1</text>
</g>
<!-- sec&#45;&gt;ss1 -->
<g id="edge5" class="edge">
<title>sec&#45;&gt;ss1</title>
<path fill="none" stroke="#00ff00" d="M369.75,-386.05C362.24,-377.71 353.04,-367.49 344.73,-358.25"/>
<polygon fill="#00ff00" stroke="#00ff00" points="347.41,-356.01 338.12,-350.91 342.21,-360.69 347.41,-356.01"/>
</g>
<!-- ss2 -->
<g id="node7" class="node">
<title>ss2</title>
<polygon fill="#333333" stroke="none" points="502,-350 394,-350 394,-314 502,-314 502,-350"/>
<text text-anchor="middle" x="448" y="-326.95" font-family="Times New Roman,serif" font-size="14.00" fill="white">ss2</text>
</g>
<!-- sec&#45;&gt;ss2 -->
<g id="edge6" class="edge">
<title>sec&#45;&gt;ss2</title>
<path fill="none" stroke="#00ff00" d="M400.25,-386.05C407.76,-377.71 416.96,-367.49 425.27,-358.25"/>
<polygon fill="#00ff00" stroke="#00ff00" points="427.79,-360.69 431.88,-350.91 422.59,-356.01 427.79,-360.69"/>
</g>
<!-- ss3 -->
<g id="node8" class="node">
<title>ss3</title>
<polygon fill="#333333" stroke="none" points="628,-350 520,-350 520,-314 628,-314 628,-350"/>
<text text-anchor="middle" x="574" y="-326.95" font-family="Times New Roman,serif" font-size="14.00" fill="white">ss3</text>
</g>
<!-- sec&#45;&gt;ss3 -->
<g id="edge7" class="edge">
<title>sec&#45;&gt;ss3</title>
<path fill="none" stroke="#00ff00" d="M430.75,-386.05C456.89,-376.37 489.88,-364.16 517.61,-353.89"/>
<polygon fill="#00ff00" stroke="#00ff00" points="518.76,-357.19 526.92,-350.44 516.33,-350.63 518.76,-357.19"/>
</g>
<!-- ps1p -->
<g id="node9" class="node">
<title>ps1p</title>
<polygon fill="#333333" stroke="none" points="124,-278 16,-278 16,-242 124,-242 124,-278"/>
<text text-anchor="middle" x="70" y="-254.95" font-family="Times New Roman,serif" font-size="14.00" fill="white">20 Products</text>
</g>
<!-- ps1&#45;&gt;ps1p -->
<g id="edge8" class="edge">
<title>ps1&#45;&gt;ps1p</title>
<path fill="none" stroke="#00ff00" d="M70,-314.05C70,-306.57 70,-297.58 70,-289.14"/>
<polygon fill="#00ff00" stroke="#00ff00" points="73.5,-289.3 70,-279.3 66.5,-289.3 73.5,-289.3"/>
</g>
<!-- ps2p -->
<g id="node10" class="node">
<title>ps2p</title>
<polygon fill="#333333" stroke="none" points="250,-278 142,-278 142,-242 250,-242 250,-278"/>
<text text-anchor="middle" x="196" y="-254.95" font-family="Times New Roman,serif" font-size="14.00" fill="white">20 Products</text>
</g>
<!-- ps2&#45;&gt;ps2p -->
<g id="edge9" class="edge">
<title>ps2&#45;&gt;ps2p</title>
<path fill="none" stroke="#00ff00" d="M196,-314.05C196,-306.57 196,-297.58 196,-289.14"/>
<polygon fill="#00ff00" stroke="#00ff00" points="199.5,-289.3 196,-279.3 192.5,-289.3 199.5,-289.3"/>
</g>
<!-- ss1p -->
<g id="node11" class="node">
<title>ss1p</title>
<polygon fill="#333333" stroke="none" points="376,-278 268,-278 268,-242 376,-242 376,-278"/>
<text text-anchor="middle" x="322" y="-254.95" font-family="Times New Roman,serif" font-size="14.00" fill="white">10 Products</text>
</g>
<!-- ss1&#45;&gt;ss1p -->
<g id="edge10" class="edge">
<title>ss1&#45;&gt;ss1p</title>
<path fill="none" stroke="#00ff00" d="M322,-314.05C322,-306.57 322,-297.58 322,-289.14"/>
<polygon fill="#00ff00" stroke="#00ff00" points="325.5,-289.3 322,-279.3 318.5,-289.3 325.5,-289.3"/>
</g>
<!-- ss2p -->
<g id="node12" class="node">
<title>ss2p</title>
<polygon fill="#333333" stroke="none" points="502,-278 394,-278 394,-242 502,-242 502,-278"/>
<text text-anchor="middle" x="448" y="-254.95" font-family="Times New Roman,serif" font-size="14.00" fill="white">10 Products</text>
</g>
<!-- ss2&#45;&gt;ss2p -->
<g id="edge11" class="edge">
<title>ss2&#45;&gt;ss2p</title>
<path fill="none" stroke="#00ff00" d="M448,-314.05C448,-306.57 448,-297.58 448,-289.14"/>
<polygon fill="#00ff00" stroke="#00ff00" points="451.5,-289.3 448,-279.3 444.5,-289.3 451.5,-289.3"/>
</g>
<!-- ss3p -->
<g id="node13" class="node">
<title>ss3p</title>
<polygon fill="#333333" stroke="none" points="628,-278 520,-278 520,-242 628,-242 628,-278"/>
<text text-anchor="middle" x="574" y="-254.95" font-family="Times New Roman,serif" font-size="14.00" fill="white">10 Products</text>
</g>
<!-- ss3&#45;&gt;ss3p -->
<g id="edge12" class="edge">
<title>ss3&#45;&gt;ss3p</title>
<path fill="none" stroke="#00ff00" d="M574,-314.05C574,-306.57 574,-297.58 574,-289.14"/>
<polygon fill="#00ff00" stroke="#00ff00" points="577.5,-289.3 574,-279.3 570.5,-289.3 577.5,-289.3"/>
</g>
<!-- ps1v -->
<g id="node14" class="node">
<title>ps1v</title>
<polygon fill="#333333" stroke="none" points="124,-206 16,-206 16,-170 124,-170 124,-206"/>
<text text-anchor="middle" x="70" y="-182.95" font-family="Times New Roman,serif" font-size="14.00" fill="white">60 Variants</text>
</g>
<!-- ps1p&#45;&gt;ps1v -->
<g id="edge13" class="edge">
<title>ps1p&#45;&gt;ps1v</title>
<path fill="none" stroke="#00ff00" d="M70,-242.05C70,-234.57 70,-225.58 70,-217.14"/>
<polygon fill="#00ff00" stroke="#00ff00" points="73.5,-217.3 70,-207.3 66.5,-217.3 73.5,-217.3"/>
</g>
<!-- ps2v -->
<g id="node15" class="node">
<title>ps2v</title>
<polygon fill="#333333" stroke="none" points="250,-206 142,-206 142,-170 250,-170 250,-206"/>
<text text-anchor="middle" x="196" y="-182.95" font-family="Times New Roman,serif" font-size="14.00" fill="white">40 Variants</text>
</g>
<!-- ps2p&#45;&gt;ps2v -->
<g id="edge14" class="edge">
<title>ps2p&#45;&gt;ps2v</title>
<path fill="none" stroke="#00ff00" d="M196,-242.05C196,-234.57 196,-225.58 196,-217.14"/>
<polygon fill="#00ff00" stroke="#00ff00" points="199.5,-217.3 196,-207.3 192.5,-217.3 199.5,-217.3"/>
</g>
<!-- ss1v -->
<g id="node16" class="node">
<title>ss1v</title>
<polygon fill="#333333" stroke="none" points="376,-206 268,-206 268,-170 376,-170 376,-206"/>
<text text-anchor="middle" x="322" y="-182.95" font-family="Times New Roman,serif" font-size="14.00" fill="white">20 Variants</text>
</g>
<!-- ss1p&#45;&gt;ss1v -->
<g id="edge15" class="edge">
<title>ss1p&#45;&gt;ss1v</title>
<path fill="none" stroke="#00ff00" d="M322,-242.05C322,-234.57 322,-225.58 322,-217.14"/>
<polygon fill="#00ff00" stroke="#00ff00" points="325.5,-217.3 322,-207.3 318.5,-217.3 325.5,-217.3"/>
</g>
<!-- ss2v -->
<g id="node17" class="node">
<title>ss2v</title>
<polygon fill="#333333" stroke="none" points="502,-206 394,-206 394,-170 502,-170 502,-206"/>
<text text-anchor="middle" x="448" y="-182.95" font-family="Times New Roman,serif" font-size="14.00" fill="white">15 Variants</text>
</g>
<!-- ss2p&#45;&gt;ss2v -->
<g id="edge16" class="edge">
<title>ss2p&#45;&gt;ss2v</title>
<path fill="none" stroke="#00ff00" d="M448,-242.05C448,-234.57 448,-225.58 448,-217.14"/>
<polygon fill="#00ff00" stroke="#00ff00" points="451.5,-217.3 448,-207.3 444.5,-217.3 451.5,-217.3"/>
</g>
<!-- ss3v -->
<g id="node18" class="node">
<title>ss3v</title>
<polygon fill="#333333" stroke="none" points="628,-206 520,-206 520,-170 628,-170 628,-206"/>
<text text-anchor="middle" x="574" y="-182.95" font-family="Times New Roman,serif" font-size="14.00" fill="white">15 Variants</text>
</g>
<!-- ss3p&#45;&gt;ss3v -->
<g id="edge17" class="edge">
<title>ss3p&#45;&gt;ss3v</title>
<path fill="none" stroke="#00ff00" d="M574,-242.05C574,-234.57 574,-225.58 574,-217.14"/>
<polygon fill="#00ff00" stroke="#00ff00" points="577.5,-217.3 574,-207.3 570.5,-217.3 577.5,-217.3"/>
</g>
<!-- v1 -->
<g id="node19" class="node">
<title>v1</title>
<polygon fill="#333333" stroke="none" points="250,-134 142,-134 142,-93 250,-93 250,-134"/>
<text text-anchor="middle" x="196" y="-116.7" font-family="Times New Roman,serif" font-size="14.00" fill="white">Variants</text>
<text text-anchor="middle" x="196" y="-100.2" font-family="Times New Roman,serif" font-size="14.00" fill="white">[60+40 = 100]</text>
</g>
<!-- ps1v&#45;&gt;v1 -->
<g id="edge18" class="edge">
<title>ps1v&#45;&gt;v1</title>
<path fill="none" stroke="#00ff00" d="M99.54,-170C115.23,-160.98 134.82,-149.71 152.23,-139.68"/>
<polygon fill="#00ff00" stroke="#00ff00" points="153.96,-142.73 160.88,-134.71 150.47,-136.66 153.96,-142.73"/>
</g>
<!-- ps2v&#45;&gt;v1 -->
<g id="edge19" class="edge">
<title>ps2v&#45;&gt;v1</title>
<path fill="none" stroke="#00ff00" d="M196,-170.18C196,-162.71 196,-153.66 196,-145.06"/>
<polygon fill="#00ff00" stroke="#00ff00" points="199.5,-145.3 196,-135.3 192.5,-145.3 199.5,-145.3"/>
</g>
<!-- v2 -->
<g id="node20" class="node">
<title>v2</title>
<polygon fill="#333333" stroke="none" points="441.62,-134 330.38,-134 330.38,-93 441.62,-93 441.62,-134"/>
<text text-anchor="middle" x="386" y="-116.7" font-family="Times New Roman,serif" font-size="14.00" fill="white">Variants</text>
<text text-anchor="middle" x="386" y="-100.2" font-family="Times New Roman,serif" font-size="14.00" fill="white">[20+15+15 = 50]</text>
</g>
<!-- ss1v&#45;&gt;v2 -->
<g id="edge20" class="edge">
<title>ss1v&#45;&gt;v2</title>
<path fill="none" stroke="#00ff00" d="M336.84,-170.18C344.19,-161.86 353.26,-151.59 361.6,-142.15"/>
<polygon fill="#00ff00" stroke="#00ff00" points="363.98,-144.73 367.97,-134.92 358.73,-140.1 363.98,-144.73"/>
</g>
<!-- ss2v&#45;&gt;v2 -->
<g id="edge21" class="edge">
<title>ss2v&#45;&gt;v2</title>
<path fill="none" stroke="#00ff00" d="M433.62,-170.18C426.57,-161.94 417.9,-151.8 409.89,-142.44"/>
<polygon fill="#00ff00" stroke="#00ff00" points="412.64,-140.26 403.48,-134.94 407.32,-144.81 412.64,-140.26"/>
</g>
<!-- ss3v&#45;&gt;v2 -->
<g id="edge22" class="edge">
<title>ss3v&#45;&gt;v2</title>
<path fill="none" stroke="#00ff00" d="M529.92,-170C505.2,-160.47 474,-148.43 446.96,-138.01"/>
<polygon fill="#00ff00" stroke="#00ff00" points="448.45,-134.83 437.86,-134.5 445.93,-141.36 448.45,-134.83"/>
</g>
<!-- v -->
<g id="node21" class="node">
<title>v</title>
<polygon fill="#333333" stroke="none" points="314,-57 206,-57 206,-16 314,-16 314,-57"/>
<text text-anchor="middle" x="260" y="-39.7" font-family="Times New Roman,serif" font-size="14.00" fill="white">Variants</text>
<text text-anchor="middle" x="260" y="-23.2" font-family="Times New Roman,serif" font-size="14.00" fill="white">150 Total</text>
</g>
<!-- v1&#45;&gt;v -->
<g id="edge23" class="edge">
<title>v1&#45;&gt;v</title>
<path fill="none" stroke="#00ff00" d="M212.48,-93.19C219.72,-84.7 228.36,-74.57 236.28,-65.3"/>
<polygon fill="#00ff00" stroke="#00ff00" points="238.76,-67.78 242.59,-57.9 233.44,-63.24 238.76,-67.78"/>
</g>
<!-- v2&#45;&gt;v -->
<g id="edge24" class="edge">
<title>v2&#45;&gt;v</title>
<path fill="none" stroke="#00ff00" d="M353.55,-93.19C337.83,-83.82 318.75,-72.47 301.93,-62.46"/>
<polygon fill="#00ff00" stroke="#00ff00" points="304.02,-59.63 293.64,-57.52 300.44,-65.65 304.02,-59.63"/>
</g>
</g>
</svg>
