<?xml version="1.0" encoding="UTF-8" standalone="no"?>
<!DOCTYPE svg PUBLIC "-//W3C//DTD SVG 1.1//EN"
 "http://www.w3.org/Graphics/SVG/1.1/DTD/svg11.dtd">
<!-- Generated by graphviz version 12.2.1 (20241206.2353)
 -->
<!-- Title: D Pages: 1 -->
<svg width="1030pt" height="553pt"
 viewBox="0.00 0.00 1030.00 552.50" xmlns="http://www.w3.org/2000/svg" xmlns:xlink="http://www.w3.org/1999/xlink">
<g id="graph0" class="graph" transform="scale(1 1) rotate(0) translate(4 548.5)">
<title>D</title>
<polygon fill="black" stroke="none" points="-4,4 -4,-548.5 1026,-548.5 1026,4 -4,4"/>
<g id="clust1" class="cluster">
<title>clusterX</title>
<polygon fill="black" stroke="orange" points="8,-8 8,-536.5 1014,-536.5 1014,-8 8,-8"/>
<text text-anchor="middle" x="511" y="-519.2" font-family="Times New Roman,serif" font-size="14.00" fill="#20b2aa">Synthetic Data Generation Plan</text>
</g>
<!-- s -->
<g id="node1" class="node">
<title>s</title>
<polygon fill="#333333" stroke="none" points="596,-504 488,-504 488,-468 596,-468 596,-504"/>
<text text-anchor="middle" x="542" y="-480.95" font-family="Times New Roman,serif" font-size="14.00" fill="white">Shops</text>
</g>
<!-- pri -->
<g id="node2" class="node">
<title>pri</title>
<polygon fill="#333333" stroke="none" points="502,-432 394,-432 394,-396 502,-396 502,-432"/>
<text text-anchor="middle" x="448" y="-408.95" font-family="Times New Roman,serif" font-size="14.00" fill="white">Pri (2)</text>
</g>
<!-- s&#45;&gt;pri -->
<g id="edge1" class="edge">
<title>s&#45;&gt;pri</title>
<path fill="none" stroke="#00ff00" d="M519.25,-468.05C507.35,-459.2 492.61,-448.22 479.62,-438.55"/>
<polygon fill="#00ff00" stroke="#00ff00" points="481.87,-435.86 471.76,-432.69 477.69,-441.47 481.87,-435.86"/>
</g>
<!-- sec -->
<g id="node3" class="node">
<title>sec</title>
<polygon fill="#333333" stroke="none" points="691,-432 583,-432 583,-396 691,-396 691,-432"/>
<text text-anchor="middle" x="637" y="-408.95" font-family="Times New Roman,serif" font-size="14.00" fill="white">Sec (3)</text>
</g>
<!-- s&#45;&gt;sec -->
<g id="edge2" class="edge">
<title>s&#45;&gt;sec</title>
<path fill="none" stroke="#00ff00" d="M565,-468.05C577.02,-459.2 591.92,-448.22 605.04,-438.55"/>
<polygon fill="#00ff00" stroke="#00ff00" points="607.02,-441.44 613,-432.69 602.87,-435.8 607.02,-441.44"/>
</g>
<!-- ps1 -->
<g id="node4" class="node">
<title>ps1</title>
<polygon fill="#333333" stroke="none" points="376,-360 268,-360 268,-324 376,-324 376,-360"/>
<text text-anchor="middle" x="322" y="-336.95" font-family="Times New Roman,serif" font-size="14.00" fill="white">ps1</text>
</g>
<!-- pri&#45;&gt;ps1 -->
<g id="edge3" class="edge">
<title>pri&#45;&gt;ps1</title>
<path fill="none" stroke="#00ff00" d="M417.5,-396.05C400.86,-386.81 380.06,-375.26 362.12,-365.29"/>
<polygon fill="#00ff00" stroke="#00ff00" points="363.98,-362.32 353.54,-360.52 360.59,-368.44 363.98,-362.32"/>
</g>
<!-- ps2 -->
<g id="node5" class="node">
<title>ps2</title>
<polygon fill="#333333" stroke="none" points="502,-360 394,-360 394,-324 502,-324 502,-360"/>
<text text-anchor="middle" x="448" y="-336.95" font-family="Times New Roman,serif" font-size="14.00" fill="white">ps2</text>
</g>
<!-- pri&#45;&gt;ps2 -->
<g id="edge4" class="edge">
<title>pri&#45;&gt;ps2</title>
<path fill="none" stroke="#00ff00" d="M448,-396.05C448,-388.57 448,-379.58 448,-371.14"/>
<polygon fill="#00ff00" stroke="#00ff00" points="451.5,-371.3 448,-361.3 444.5,-371.3 451.5,-371.3"/>
</g>
<!-- ss1 -->
<g id="node6" class="node">
<title>ss1</title>
<polygon fill="#333333" stroke="none" points="880,-360 772,-360 772,-324 880,-324 880,-360"/>
<text text-anchor="middle" x="826" y="-336.95" font-family="Times New Roman,serif" font-size="14.00" fill="white">ss1</text>
</g>
<!-- sec&#45;&gt;ss1 -->
<g id="edge5" class="edge">
<title>sec&#45;&gt;ss1</title>
<path fill="none" stroke="#00ff00" d="M682.75,-396.05C708.89,-386.37 741.88,-374.16 769.61,-363.89"/>
<polygon fill="#00ff00" stroke="#00ff00" points="770.76,-367.19 778.92,-360.44 768.33,-360.63 770.76,-367.19"/>
</g>
<!-- ss2 -->
<g id="node7" class="node">
<title>ss2</title>
<polygon fill="#333333" stroke="none" points="628,-360 520,-360 520,-324 628,-324 628,-360"/>
<text text-anchor="middle" x="574" y="-336.95" font-family="Times New Roman,serif" font-size="14.00" fill="white">ss2</text>
</g>
<!-- sec&#45;&gt;ss2 -->
<g id="edge6" class="edge">
<title>sec&#45;&gt;ss2</title>
<path fill="none" stroke="#00ff00" d="M621.75,-396.05C614.24,-387.71 605.04,-377.49 596.73,-368.25"/>
<polygon fill="#00ff00" stroke="#00ff00" points="599.41,-366.01 590.12,-360.91 594.21,-370.69 599.41,-366.01"/>
</g>
<!-- ss3 -->
<g id="node8" class="node">
<title>ss3</title>
<polygon fill="#333333" stroke="none" points="754,-360 646,-360 646,-324 754,-324 754,-360"/>
<text text-anchor="middle" x="700" y="-336.95" font-family="Times New Roman,serif" font-size="14.00" fill="white">ss3</text>
</g>
<!-- sec&#45;&gt;ss3 -->
<g id="edge7" class="edge">
<title>sec&#45;&gt;ss3</title>
<path fill="none" stroke="#00ff00" d="M652.25,-396.05C659.76,-387.71 668.96,-377.49 677.27,-368.25"/>
<polygon fill="#00ff00" stroke="#00ff00" points="679.79,-370.69 683.88,-360.91 674.59,-366.01 679.79,-370.69"/>
</g>
<!-- cp -->
<g id="node10" class="node">
<title>cp</title>
<polygon fill="#333333" stroke="none" points="502,-288 394,-288 394,-247 502,-247 502,-288"/>
<text text-anchor="middle" x="448" y="-270.7" font-family="Times New Roman,serif" font-size="14.00" fill="white">[Cust: 40]</text>
<text text-anchor="middle" x="448" y="-254.2" font-family="Times New Roman,serif" font-size="14.00" fill="white">20 each</text>
</g>
<!-- ps1&#45;&gt;cp -->
<g id="edge8" class="edge">
<title>ps1&#45;&gt;cp</title>
<path fill="none" stroke="#00ff00" d="M351.54,-324C367.23,-314.98 386.82,-303.71 404.23,-293.68"/>
<polygon fill="#00ff00" stroke="#00ff00" points="405.96,-296.73 412.88,-288.71 402.47,-290.66 405.96,-296.73"/>
</g>
<!-- ps1p -->
<g id="node15" class="node">
<title>ps1p</title>
<polygon fill="#333333" stroke="none" points="250,-285.5 142,-285.5 142,-249.5 250,-249.5 250,-285.5"/>
<text text-anchor="middle" x="196" y="-262.45" font-family="Times New Roman,serif" font-size="14.00" fill="white">20 Products</text>
</g>
<!-- ps1&#45;&gt;ps1p -->
<g id="edge22" class="edge">
<title>ps1&#45;&gt;ps1p</title>
<path fill="none" stroke="#00ff00" d="M292.46,-324C275.4,-314.18 253.72,-301.71 235.24,-291.08"/>
<polygon fill="#00ff00" stroke="#00ff00" points="237.08,-288.1 226.67,-286.15 233.59,-294.17 237.08,-288.1"/>
</g>
<!-- ps2&#45;&gt;cp -->
<g id="edge9" class="edge">
<title>ps2&#45;&gt;cp</title>
<path fill="none" stroke="#00ff00" d="M448,-324.18C448,-316.71 448,-307.66 448,-299.06"/>
<polygon fill="#00ff00" stroke="#00ff00" points="451.5,-299.3 448,-289.3 444.5,-299.3 451.5,-299.3"/>
</g>
<!-- ps2p -->
<g id="node16" class="node">
<title>ps2p</title>
<polygon fill="#333333" stroke="none" points="376,-285.5 268,-285.5 268,-249.5 376,-249.5 376,-285.5"/>
<text text-anchor="middle" x="322" y="-262.45" font-family="Times New Roman,serif" font-size="14.00" fill="white">20 Products</text>
</g>
<!-- ps2&#45;&gt;ps2p -->
<g id="edge23" class="edge">
<title>ps2&#45;&gt;ps2p</title>
<path fill="none" stroke="#00ff00" d="M418.46,-324C401.4,-314.18 379.72,-301.71 361.24,-291.08"/>
<polygon fill="#00ff00" stroke="#00ff00" points="363.08,-288.1 352.67,-286.15 359.59,-294.17 363.08,-288.1"/>
</g>
<!-- cs -->
<g id="node11" class="node">
<title>cs</title>
<polygon fill="#333333" stroke="none" points="754,-288 646,-288 646,-247 754,-247 754,-288"/>
<text text-anchor="middle" x="700" y="-270.7" font-family="Times New Roman,serif" font-size="14.00" fill="white">[Cust: 30]</text>
<text text-anchor="middle" x="700" y="-254.2" font-family="Times New Roman,serif" font-size="14.00" fill="white">10 each</text>
</g>
<!-- ss1&#45;&gt;cs -->
<g id="edge10" class="edge">
<title>ss1&#45;&gt;cs</title>
<path fill="none" stroke="#00ff00" d="M796.46,-324C780.77,-314.98 761.18,-303.71 743.77,-293.68"/>
<polygon fill="#00ff00" stroke="#00ff00" points="745.53,-290.66 735.12,-288.71 742.04,-296.73 745.53,-290.66"/>
</g>
<!-- ss1p -->
<g id="node17" class="node">
<title>ss1p</title>
<polygon fill="#333333" stroke="none" points="1006,-285.5 898,-285.5 898,-249.5 1006,-249.5 1006,-285.5"/>
<text text-anchor="middle" x="952" y="-262.45" font-family="Times New Roman,serif" font-size="14.00" fill="white">10 Products</text>
</g>
<!-- ss1&#45;&gt;ss1p -->
<g id="edge24" class="edge">
<title>ss1&#45;&gt;ss1p</title>
<path fill="none" stroke="#00ff00" d="M855.54,-324C872.6,-314.18 894.28,-301.71 912.76,-291.08"/>
<polygon fill="#00ff00" stroke="#00ff00" points="914.41,-294.17 921.33,-286.15 910.92,-288.1 914.41,-294.17"/>
</g>
<!-- ss2&#45;&gt;cs -->
<g id="edge11" class="edge">
<title>ss2&#45;&gt;cs</title>
<path fill="none" stroke="#00ff00" d="M603.54,-324C619.23,-314.98 638.82,-303.71 656.23,-293.68"/>
<polygon fill="#00ff00" stroke="#00ff00" points="657.96,-296.73 664.88,-288.71 654.47,-290.66 657.96,-296.73"/>
</g>
<!-- ss2p -->
<g id="node18" class="node">
<title>ss2p</title>
<polygon fill="#333333" stroke="none" points="628,-285.5 520,-285.5 520,-249.5 628,-249.5 628,-285.5"/>
<text text-anchor="middle" x="574" y="-262.45" font-family="Times New Roman,serif" font-size="14.00" fill="white">10 Products</text>
</g>
<!-- ss2&#45;&gt;ss2p -->
<g id="edge25" class="edge">
<title>ss2&#45;&gt;ss2p</title>
<path fill="none" stroke="#00ff00" d="M574,-324.18C574,-316.1 574,-306.18 574,-296.97"/>
<polygon fill="#00ff00" stroke="#00ff00" points="577.5,-296.99 574,-286.99 570.5,-296.99 577.5,-296.99"/>
</g>
<!-- ss3&#45;&gt;cs -->
<g id="edge12" class="edge">
<title>ss3&#45;&gt;cs</title>
<path fill="none" stroke="#00ff00" d="M700,-324.18C700,-316.71 700,-307.66 700,-299.06"/>
<polygon fill="#00ff00" stroke="#00ff00" points="703.5,-299.3 700,-289.3 696.5,-299.3 703.5,-299.3"/>
</g>
<!-- ss3p -->
<g id="node19" class="node">
<title>ss3p</title>
<polygon fill="#333333" stroke="none" points="880,-285.5 772,-285.5 772,-249.5 880,-249.5 880,-285.5"/>
<text text-anchor="middle" x="826" y="-262.45" font-family="Times New Roman,serif" font-size="14.00" fill="white">10 Products</text>
</g>
<!-- ss3&#45;&gt;ss3p -->
<g id="edge26" class="edge">
<title>ss3&#45;&gt;ss3p</title>
<path fill="none" stroke="#00ff00" d="M729.54,-324C746.6,-314.18 768.28,-301.71 786.76,-291.08"/>
<polygon fill="#00ff00" stroke="#00ff00" points="788.41,-294.17 795.33,-286.15 784.92,-288.1 788.41,-294.17"/>
</g>
<!-- c -->
<g id="node9" class="node">
<title>c</title>
<polygon fill="#333333" stroke="none" points="502,-211 394,-211 394,-170 502,-170 502,-211"/>
<text text-anchor="middle" x="448" y="-193.7" font-family="Times New Roman,serif" font-size="14.00" fill="white">Customers</text>
<text text-anchor="middle" x="448" y="-177.2" font-family="Times New Roman,serif" font-size="14.00" fill="white">70 Total</text>
</g>
<!-- cp&#45;&gt;c -->
<g id="edge13" class="edge">
<title>cp&#45;&gt;c</title>
<path fill="none" stroke="#00ff00" d="M448,-247.19C448,-239.57 448,-230.64 448,-222.19"/>
<polygon fill="#00ff00" stroke="#00ff00" points="451.5,-222.26 448,-212.26 444.5,-222.26 451.5,-222.26"/>
</g>
<!-- cs&#45;&gt;c -->
<g id="edge14" class="edge">
<title>cs&#45;&gt;c</title>
<path fill="none" stroke="#00ff00" d="M646.07,-249.72C643,-248.79 639.96,-247.88 637,-247 584.45,-231.36 568.65,-227.98 512.84,-211.51"/>
<polygon fill="#00ff00" stroke="#00ff00" points="513.97,-208.2 503.38,-208.71 511.98,-214.91 513.97,-208.2"/>
</g>
<!-- p -->
<g id="node12" class="node">
<title>p</title>
<polygon fill="#333333" stroke="none" points="627,-134 519,-134 519,-93 627,-93 627,-134"/>
<text text-anchor="middle" x="573" y="-116.7" font-family="Times New Roman,serif" font-size="14.00" fill="white">Products</text>
<text text-anchor="middle" x="573" y="-100.2" font-family="Times New Roman,serif" font-size="14.00" fill="white">70 Total</text>
</g>
<!-- pp -->
<g id="node13" class="node">
<title>pp</title>
<polygon fill="#333333" stroke="none" points="250,-211 142,-211 142,-170 250,-170 250,-211"/>
<text text-anchor="middle" x="196" y="-193.7" font-family="Times New Roman,serif" font-size="14.00" fill="white">[Prod: 40]</text>
<text text-anchor="middle" x="196" y="-177.2" font-family="Times New Roman,serif" font-size="14.00" fill="white">20 each</text>
</g>
<!-- pp&#45;&gt;p -->
<g id="edge20" class="edge">
<title>pp&#45;&gt;p</title>
<path fill="none" stroke="#00ff00" d="M249.83,-172.35C252.92,-171.52 256,-170.73 259,-170 344.27,-149.35 444.31,-133 508.14,-123.54"/>
<polygon fill="#00ff00" stroke="#00ff00" points="508.36,-127.04 517.74,-122.13 507.34,-120.12 508.36,-127.04"/>
</g>
<!-- ps -->
<g id="node14" class="node">
<title>ps</title>
<polygon fill="#333333" stroke="none" points="754,-211 646,-211 646,-170 754,-170 754,-211"/>
<text text-anchor="middle" x="700" y="-193.7" font-family="Times New Roman,serif" font-size="14.00" fill="white">[Prod: 30]</text>
<text text-anchor="middle" x="700" y="-177.2" font-family="Times New Roman,serif" font-size="14.00" fill="white">10 each</text>
</g>
<!-- ps&#45;&gt;p -->
<g id="edge21" class="edge">
<title>ps&#45;&gt;p</title>
<path fill="none" stroke="#00ff00" d="M667.29,-170.19C651.44,-160.82 632.22,-149.47 615.27,-139.46"/>
<polygon fill="#00ff00" stroke="#00ff00" points="617.29,-136.59 606.9,-134.52 613.73,-142.62 617.29,-136.59"/>
</g>
<!-- ps1p&#45;&gt;pp -->
<g id="edge15" class="edge">
<title>ps1p&#45;&gt;pp</title>
<path fill="none" stroke="#00ff00" d="M196,-249.86C196,-241.72 196,-231.67 196,-222.22"/>
<polygon fill="#00ff00" stroke="#00ff00" points="199.5,-222.26 196,-212.26 192.5,-222.26 199.5,-222.26"/>
</g>
<!-- ps1v -->
<g id="node20" class="node">
<title>ps1v</title>
<polygon fill="#333333" stroke="none" points="124,-208.5 16,-208.5 16,-172.5 124,-172.5 124,-208.5"/>
<text text-anchor="middle" x="70" y="-185.45" font-family="Times New Roman,serif" font-size="14.00" fill="white">60 Variants</text>
</g>
<!-- ps1p&#45;&gt;ps1v -->
<g id="edge27" class="edge">
<title>ps1p&#45;&gt;ps1v</title>
<path fill="none" stroke="#00ff00" d="M167.72,-249.67C150.05,-239.15 127.08,-225.48 107.85,-214.03"/>
<polygon fill="#00ff00" stroke="#00ff00" points="109.87,-211.16 99.48,-209.05 106.29,-217.17 109.87,-211.16"/>
</g>
<!-- ps2p&#45;&gt;pp -->
<g id="edge16" class="edge">
<title>ps2p&#45;&gt;pp</title>
<path fill="none" stroke="#00ff00" d="M293.72,-249.67C277.44,-239.98 256.65,-227.6 238.44,-216.76"/>
<polygon fill="#00ff00" stroke="#00ff00" points="240.32,-213.81 229.93,-211.7 236.74,-219.82 240.32,-213.81"/>
</g>
<!-- ps2v -->
<g id="node21" class="node">
<title>ps2v</title>
<polygon fill="#333333" stroke="none" points="376,-208.5 268,-208.5 268,-172.5 376,-172.5 376,-208.5"/>
<text text-anchor="middle" x="322" y="-185.45" font-family="Times New Roman,serif" font-size="14.00" fill="white">40 Variants</text>
</g>
<!-- ps2p&#45;&gt;ps2v -->
<g id="edge28" class="edge">
<title>ps2p&#45;&gt;ps2v</title>
<path fill="none" stroke="#00ff00" d="M322,-249.86C322,-240.98 322,-229.83 322,-219.66"/>
<polygon fill="#00ff00" stroke="#00ff00" points="325.5,-219.87 322,-209.87 318.5,-219.87 325.5,-219.87"/>
</g>
<!-- ss1p&#45;&gt;ps -->
<g id="edge17" class="edge">
<title>ss1p&#45;&gt;ps</title>
<path fill="none" stroke="#00ff00" d="M898.07,-249.72C895,-248.79 891.96,-247.88 889,-247 836.45,-231.36 820.65,-227.98 764.84,-211.51"/>
<polygon fill="#00ff00" stroke="#00ff00" points="765.97,-208.2 755.38,-208.71 763.98,-214.91 765.97,-208.2"/>
</g>
<!-- ss1v -->
<g id="node22" class="node">
<title>ss1v</title>
<polygon fill="#333333" stroke="none" points="1006,-208.5 898,-208.5 898,-172.5 1006,-172.5 1006,-208.5"/>
<text text-anchor="middle" x="952" y="-185.45" font-family="Times New Roman,serif" font-size="14.00" fill="white">20 Variants</text>
</g>
<!-- ss1p&#45;&gt;ss1v -->
<g id="edge29" class="edge">
<title>ss1p&#45;&gt;ss1v</title>
<path fill="none" stroke="#00ff00" d="M952,-249.86C952,-240.98 952,-229.83 952,-219.66"/>
<polygon fill="#00ff00" stroke="#00ff00" points="955.5,-219.87 952,-209.87 948.5,-219.87 955.5,-219.87"/>
</g>
<!-- ss2p&#45;&gt;ps -->
<g id="edge18" class="edge">
<title>ss2p&#45;&gt;ps</title>
<path fill="none" stroke="#00ff00" d="M602.28,-249.67C618.56,-239.98 639.35,-227.6 657.56,-216.76"/>
<polygon fill="#00ff00" stroke="#00ff00" points="659.26,-219.82 666.07,-211.7 655.68,-213.81 659.26,-219.82"/>
</g>
<!-- ss2v -->
<g id="node23" class="node">
<title>ss2v</title>
<polygon fill="#333333" stroke="none" points="628,-208.5 520,-208.5 520,-172.5 628,-172.5 628,-208.5"/>
<text text-anchor="middle" x="574" y="-185.45" font-family="Times New Roman,serif" font-size="14.00" fill="white">15 Variants</text>
</g>
<!-- ss2p&#45;&gt;ss2v -->
<g id="edge30" class="edge">
<title>ss2p&#45;&gt;ss2v</title>
<path fill="none" stroke="#00ff00" d="M574,-249.86C574,-240.98 574,-229.83 574,-219.66"/>
<polygon fill="#00ff00" stroke="#00ff00" points="577.5,-219.87 574,-209.87 570.5,-219.87 577.5,-219.87"/>
</g>
<!-- ss3p&#45;&gt;ps -->
<g id="edge19" class="edge">
<title>ss3p&#45;&gt;ps</title>
<path fill="none" stroke="#00ff00" d="M797.72,-249.67C781.44,-239.98 760.65,-227.6 742.44,-216.76"/>
<polygon fill="#00ff00" stroke="#00ff00" points="744.32,-213.81 733.93,-211.7 740.74,-219.82 744.32,-213.81"/>
</g>
<!-- ss3v -->
<g id="node24" class="node">
<title>ss3v</title>
<polygon fill="#333333" stroke="none" points="880,-208.5 772,-208.5 772,-172.5 880,-172.5 880,-208.5"/>
<text text-anchor="middle" x="826" y="-185.45" font-family="Times New Roman,serif" font-size="14.00" fill="white">15 Variants</text>
</g>
<!-- ss3p&#45;&gt;ss3v -->
<g id="edge31" class="edge">
<title>ss3p&#45;&gt;ss3v</title>
<path fill="none" stroke="#00ff00" d="M826,-249.86C826,-240.98 826,-229.83 826,-219.66"/>
<polygon fill="#00ff00" stroke="#00ff00" points="829.5,-219.87 826,-209.87 822.5,-219.87 829.5,-219.87"/>
</g>
<!-- v1 -->
<g id="node25" class="node">
<title>v1</title>
<polygon fill="#333333" stroke="none" points="376,-134 268,-134 268,-93 376,-93 376,-134"/>
<text text-anchor="middle" x="322" y="-116.7" font-family="Times New Roman,serif" font-size="14.00" fill="white">Variants</text>
<text text-anchor="middle" x="322" y="-100.2" font-family="Times New Roman,serif" font-size="14.00" fill="white">[60+40 = 100]</text>
</g>
<!-- ps1v&#45;&gt;v1 -->
<g id="edge32" class="edge">
<title>ps1v&#45;&gt;v1</title>
<path fill="none" stroke="#00ff00" d="M123.94,-172.75C127,-171.81 130.04,-170.89 133,-170 174.24,-157.56 220.66,-143.93 257.17,-133.28"/>
<polygon fill="#00ff00" stroke="#00ff00" points="258.09,-136.66 266.72,-130.5 256.14,-129.94 258.09,-136.66"/>
</g>
<!-- ps2v&#45;&gt;v1 -->
<g id="edge33" class="edge">
<title>ps2v&#45;&gt;v1</title>
<path fill="none" stroke="#00ff00" d="M322,-172.86C322,-164.72 322,-154.67 322,-145.22"/>
<polygon fill="#00ff00" stroke="#00ff00" points="325.5,-145.26 322,-135.26 318.5,-145.26 325.5,-145.26"/>
</g>
<!-- v2 -->
<g id="node26" class="node">
<title>v2</title>
<polygon fill="#333333" stroke="none" points="818.62,-134 707.38,-134 707.38,-93 818.62,-93 818.62,-134"/>
<text text-anchor="middle" x="763" y="-116.7" font-family="Times New Roman,serif" font-size="14.00" fill="white">Variants</text>
<text text-anchor="middle" x="763" y="-100.2" font-family="Times New Roman,serif" font-size="14.00" fill="white">[20+15+15 = 50]</text>
</g>
<!-- ss1v&#45;&gt;v2 -->
<g id="edge34" class="edge">
<title>ss1v&#45;&gt;v2</title>
<path fill="none" stroke="#00ff00" d="M909.58,-172.67C883.91,-162.48 850.79,-149.34 822.52,-138.12"/>
<polygon fill="#00ff00" stroke="#00ff00" points="823.94,-134.92 813.36,-134.48 821.36,-141.42 823.94,-134.92"/>
</g>
<!-- ss2v&#45;&gt;v2 -->
<g id="edge35" class="edge">
<title>ss2v&#45;&gt;v2</title>
<path fill="none" stroke="#00ff00" d="M616.42,-172.67C642.09,-162.48 675.21,-149.34 703.48,-138.12"/>
<polygon fill="#00ff00" stroke="#00ff00" points="704.64,-141.42 712.64,-134.48 702.06,-134.92 704.64,-141.42"/>
</g>
<!-- ss3v&#45;&gt;v2 -->
<g id="edge36" class="edge">
<title>ss3v&#45;&gt;v2</title>
<path fill="none" stroke="#00ff00" d="M812.02,-172.86C804.5,-163.91 795.04,-152.64 786.44,-142.4"/>
<polygon fill="#00ff00" stroke="#00ff00" points="789.25,-140.31 780.14,-134.91 783.89,-144.81 789.25,-140.31"/>
</g>
<!-- v -->
<g id="node27" class="node">
<title>v</title>
<polygon fill="#333333" stroke="none" points="503,-57 395,-57 395,-16 503,-16 503,-57"/>
<text text-anchor="middle" x="449" y="-39.7" font-family="Times New Roman,serif" font-size="14.00" fill="white">Variants</text>
<text text-anchor="middle" x="449" y="-23.2" font-family="Times New Roman,serif" font-size="14.00" fill="white">150 Total</text>
</g>
<!-- v1&#45;&gt;v -->
<g id="edge37" class="edge">
<title>v1&#45;&gt;v</title>
<path fill="none" stroke="#00ff00" d="M354.71,-93.19C370.56,-83.82 389.78,-72.47 406.73,-62.46"/>
<polygon fill="#00ff00" stroke="#00ff00" points="408.27,-65.62 415.1,-57.52 404.71,-59.59 408.27,-65.62"/>
</g>
<!-- v2&#45;&gt;v -->
<g id="edge38" class="edge">
<title>v2&#45;&gt;v</title>
<path fill="none" stroke="#00ff00" d="M707.59,-99.26C653.45,-86.33 571.07,-66.66 513.89,-53"/>
<polygon fill="#00ff00" stroke="#00ff00" points="514.82,-49.62 504.28,-50.7 513.2,-56.43 514.82,-49.62"/>
</g>
</g>
</svg>
